<svg xmlns="http://www.w3.org/2000/svg" viewBox="0 0 96 93.6"><defs><style>.cls-1{fill:#00e4bb;}.cls-2{fill:#002620;}</style></defs><title>Audition</title><g id="Layer_2" data-name="Layer 2"><g id="Layer_1-2" data-name="Layer 1"><rect class="cls-1" width="96" height="93.6"/><rect class="cls-2" x="4.8" y="4.8" width="86.4" height="84"/><path class="cls-1" d="M37.6,22.4c-.16-.32-.16-.32-.48-.32H28.64c-.16,0-.32,0-.32.32A11.06,11.06,0,0,1,28,25.6L16.64,65.44c-.16.48,0,.64.32.64h5.92c.48,0,.64,0,.64-.32l3.2-12,12.8-.16,3.36,12c.16.32.32.32.64.32h6.56c.32,0,.32-.16.32-.48ZM28.48,47.2c1.6-6.08,3.84-14.08,4.64-18.72,1,4.64,3.68,14.24,4.8,18.72Z"/><path class="cls-1" d="M78.4,59.52c0,.32,0,1.76.16,4.16,0,.32-.16.32-.32.48a35,35,0,0,1-12.32,2.72c-5.6,0-11.84-2.24-11.84-11.84V34.24a.42.42,0,0,1,.48-.48h6.08a.42.42,0,0,1,.48.48V54.4c0,3.84,1.28,5.92,5.28,5.92a11.82,11.82,0,0,0,4.48-.8V33.92c0-.32.16-.48.32-.48h6.56a.42.42,0,0,1,.48.48l.16,25.6Z"/></g></g></svg>